<svg width="205" height="54" viewBox="0 0 205 54" fill="none" xmlns="http://www.w3.org/2000/svg">
<path d="M0 5C0 2.23858 2.23858 0 5 0H175.813C177.135 0 178.403 0.523668 179.34 1.45644L201.44 23.4564C203.404 25.4109 203.404 28.5891 201.44 30.5436L179.34 52.5436C178.403 53.4763 177.135 54 175.813 54H5C2.23857 54 0 51.7614 0 49V5Z" fill="#CCC7C1"/>
<path d="M77.125 16.1H79.75L86.15 34H83.425L81.65 28.675H74.775L72.9 34H70.225L77.125 16.1ZM78.325 18.825L75.6 26.65H80.95L78.325 18.825ZM89.2398 16.1H91.7398V24.85L100.165 16.1H103.465L96.2398 23.425L103.415 34H100.465L94.5398 25.025L91.7398 27.8V34H89.2398V16.1ZM107.502 34V16.1H110.002V31.75H118.452V16.1H120.952V31.75H122.602V34H107.502ZM140.561 16.1V34H138.086V19.825L129.936 34H127.136V16.1H129.661V30.175L137.811 16.1H140.561ZM158.506 16.1V34H156.031V19.825L147.881 34H145.081V16.1H147.606V30.175L155.756 16.1H158.506Z" fill="white"/>
<path d="M55.232 27.784C52.608 27.784 50.496 29.928 50.496 32.552C50.496 34.568 51.776 36.328 53.568 37C54.08 37.192 54.656 37.288 55.232 37.288C55.84 37.288 56.384 37.192 56.928 37C58.72 36.328 60 34.568 60 32.552C60 29.928 57.856 27.784 55.232 27.784ZM55.232 34.632C54.08 34.632 53.152 33.704 53.152 32.552C53.152 31.4 54.08 30.472 55.232 30.472C56.384 30.472 57.312 31.4 57.312 32.552C57.312 33.704 56.384 34.632 55.232 34.632ZM46.912 14.76C46.432 14.568 45.92 14.472 45.376 14.472C44.832 14.472 44.32 14.568 43.84 14.76C41.952 15.4 40.64 17.16 40.64 19.24C40.64 21.864 42.752 24.008 45.376 24.008C48 24.008 50.144 21.864 50.144 19.24C50.144 17.16 48.8 15.4 46.912 14.76ZM45.376 21.32C44.224 21.32 43.296 20.392 43.296 19.24C43.296 18.088 44.224 17.16 45.376 17.16C46.528 17.16 47.456 18.088 47.456 19.24C47.456 20.392 46.528 21.32 45.376 21.32ZM56.512 14.76L40.832 37H44.128L59.776 14.76H56.512Z" fill="white"/>
</svg>
