<svg width="120" height="120" viewBox="0 0 120 120" fill="none" xmlns="http://www.w3.org/2000/svg">
<path d="M112.239 32.0502C115.32 39.3127 116.421 46.1351 116.421 54.278C116.421 89.9305 85.1699 109.297 62.722 109.297C33.8919 109.297 14.9653 87.2896 14.9653 64.8417C14.9653 42.3938 33.2317 23.9073 55.8996 23.9073C57.2201 23.9073 58.7606 23.9073 60.3012 23.9073C39.834 23.9073 23.3282 41.5135 23.3282 63.0811C23.3282 89.4903 42.695 105.556 62.9421 105.996C63.1622 105.996 63.6023 105.996 63.8224 105.996C84.7297 105.996 108.498 86.6294 108.498 55.5985C108.498 24.5676 84.5097 3 56.3398 3C25.3089 3 0 28.3089 0 59.3398C0 72.3243 3.74131 85.529 11.2239 94.5521C5.06178 85.749 2.64092 72.9846 2.64092 64.8417C2.64092 35.5714 26.6293 11.8031 56.3398 11.8031C86.0502 11.8031 105.197 31.39 105.197 55.1583C105.197 71.8842 91.9923 97.4131 62.2819 97.4131C61.4016 97.4131 60.5212 97.4131 59.4209 97.4131C55.8996 97.1931 52.1583 96.3128 48.417 94.9923C39.1738 91.251 30.5907 83.7683 27.7297 73.4247C33.0116 87.2896 47.7568 95.2124 60.0811 95.4324C84.0695 95.4324 97.2741 75.4054 97.2741 58.2394C97.2741 30.9498 77.2471 15.5444 55.6795 15.5444C30.8108 15.5444 10.7838 37.5521 10.7838 64.8417C10.7838 91.251 32.1313 117 62.9421 117C93.7529 117 118.842 92.1313 118.842 59.5598C119.062 49.2162 116.421 40.1931 112.239 32.0502Z" fill="#B6966E"/>
<path d="M113.377 32.0502C116.458 39.3127 117.558 46.1351 117.558 54.278C117.558 89.9305 86.3071 109.297 63.8592 109.297C35.0291 109.297 16.1025 87.2896 16.1025 64.8417C16.1025 42.3938 34.3689 23.9073 57.0368 23.9073C58.3573 23.9073 59.8978 23.9073 61.4384 23.9073C40.9712 23.9073 24.4654 41.5135 24.4654 63.0811C24.4654 89.4903 43.8322 105.556 64.0793 105.996C64.2994 105.996 64.7395 105.996 64.9596 105.996C85.867 105.996 109.635 86.6294 109.635 55.5985C109.635 24.5676 85.6469 3 57.477 3C26.4461 3 1.13721 28.3089 1.13721 59.3398C1.13721 72.3243 4.87852 85.529 12.3611 94.5521C6.19898 85.749 3.77813 72.9846 3.77813 64.8417C3.77813 35.5714 27.7666 11.8031 57.477 11.8031C87.1874 11.8031 106.334 31.39 106.334 55.1583C106.334 71.8842 93.1295 97.4131 63.4191 97.4131C62.5388 97.4131 61.6585 97.4131 60.5581 97.4131C57.0368 97.1931 53.2955 96.3128 49.5542 94.9923C40.311 91.251 31.7279 83.7683 28.8669 73.4247C34.1488 87.2896 48.894 95.2124 61.2183 95.4324C85.2067 95.4324 98.4113 75.4054 98.4113 58.2394C98.4113 30.9498 78.3843 15.5444 56.8168 15.5444C31.948 15.5444 11.921 37.5521 11.921 64.8417C11.921 91.251 33.2685 117 64.0793 117C94.8901 117 119.979 92.1313 119.979 59.5598C120.199 49.2162 117.558 40.1931 113.377 32.0502Z" fill="url(#paint0_linear_750_2104)"/>
<path d="M41.7667 53.191C41.3266 51.6505 44.6277 50.9903 46.3883 50.7702C46.8285 49.8899 46.6084 49.2296 48.369 49.0096C48.369 47.6891 48.149 46.3686 48.149 45.0482C48.5891 39.7663 51.6702 34.0443 58.2725 31.4034C65.9752 28.5424 74.1181 31.4034 76.5389 38.0057C78.0795 42.1872 76.759 46.8088 74.3381 50.11C71.6972 53.6312 68.3961 54.5115 65.9752 54.2914C62.0138 53.8513 59.8131 49.6698 60.4733 45.7084C60.9134 43.5076 62.2339 41.5269 64.2146 40.4266V40.8667C63.3343 41.747 62.6741 42.8474 62.454 44.3879C61.7937 47.469 63.3343 50.7702 65.9752 51.2103C70.3768 52.3107 75.6586 46.3686 73.2378 39.3262C71.6972 34.4845 66.4154 33.6042 60.9134 35.1447C58.2725 36.025 55.6316 37.1254 54.5312 39.1061C53.4308 40.6466 52.5505 42.4073 52.3304 44.1679C52.1104 45.4883 52.1104 46.8088 52.1104 47.9092L51.8903 48.3493L52.3304 47.9092C52.3304 47.9092 52.5505 48.3493 52.9907 47.9092C56.5119 46.1486 55.8517 50.11 53.6509 50.33C53.6509 50.33 53.871 53.4111 54.9714 56.2721C55.1914 56.7123 56.2918 57.3725 56.732 57.3725C68.6161 57.5926 74.3382 61.554 76.0988 58.4729C74.7783 55.6119 74.9984 54.5115 75.6586 54.5115C77.1992 54.7316 78.5196 58.0327 77.8594 61.1138C77.8594 63.5347 77.8594 81.581 77.8594 81.581C77.8594 81.581 72.1374 81.8011 70.3768 81.8011C71.2571 80.2605 72.3574 74.9787 73.2378 72.1177C73.2378 74.5385 71.037 66.8358 67.9559 65.9555C66.1953 64.6351 62.0138 67.0559 57.1721 66.1756L56.9521 81.3609C56.9521 81.3609 52.7706 81.581 49.9096 81.3609C49.4694 79.1602 51.4501 73.8783 51.6702 71.8976C50.3497 70.5771 52.3304 67.0559 49.9096 64.8551C47.7088 62.6544 47.9289 59.5733 47.7088 58.4729C47.4887 57.3725 46.8285 55.3918 45.288 56.2721C43.7474 57.1524 43.3073 54.5115 41.3266 55.3918C39.3459 56.7123 40.8864 54.7316 41.7667 53.191Z" fill="#714615"/>
<path d="M40.4451 53.6285C40.0049 52.308 43.3061 51.6478 45.0667 51.4277C45.5069 50.5474 45.2868 49.8871 47.0474 49.8871C46.8273 48.7868 46.8273 47.4663 46.8273 46.1458C47.2675 41.0841 50.3486 35.5821 56.9509 33.1613C64.6536 30.3003 72.7964 33.1613 75.2173 39.5435C76.7578 43.5049 75.4374 47.9065 73.0165 51.2076C70.3756 54.7288 67.0744 55.3891 64.6536 55.169C60.6922 54.7288 58.4914 50.7675 59.1517 47.0261C59.5918 44.8254 60.9123 43.0648 62.893 41.9644V42.4045C62.0127 43.2848 61.3524 44.3852 61.1324 45.7057C60.4721 48.5667 62.0127 51.6478 64.6536 52.308C69.0551 53.4084 74.337 47.6864 71.9161 40.864C70.3756 36.2424 63.9934 34.2617 58.4914 36.2424C56.0706 37.1227 54.0899 38.6632 52.9895 40.6439C51.8891 42.1844 51.2289 43.725 51.0088 45.4856C50.7887 46.8061 50.7887 48.5667 50.7887 49.6671C50.7887 49.6671 51.0088 49.6671 51.449 49.2269C54.9702 47.6864 54.31 50.9875 52.1092 51.4277C52.1092 51.4277 52.3293 54.5088 53.4297 57.1497C53.6497 57.5899 54.7501 58.2501 55.1903 58.2501C67.0744 58.4702 72.7965 62.2115 74.5571 59.3505C75.2173 51.6478 77.6381 56.9296 76.7578 61.7713C76.7578 63.9721 76.7578 81.3582 76.7578 81.3582C76.7578 81.3582 73.2366 81.5783 71.476 81.5783C72.3563 80.0377 73.4567 73.8756 73.0165 71.6748C71.2559 70.5744 70.8158 67.4933 69.4953 66.1729C67.7347 64.8524 60.9123 67.7134 56.0706 66.8331L55.6304 80.918C55.6304 80.918 53.4297 81.1381 50.5687 80.918C50.1285 78.9373 52.1092 73.8756 52.3293 71.8949C51.0088 70.5744 52.9895 67.2733 50.5687 65.0725C48.3679 63.0918 48.588 60.0107 48.3679 58.9103C48.1478 57.8099 47.4876 56.0493 46.1671 56.9296C44.6266 57.8099 44.1864 55.3891 42.2057 56.0493C40.0049 57.1497 39.5648 55.3891 40.4451 53.6285Z" fill="white"/>
<path d="M40.6659 53.1885C40.6659 51.648 44.1872 52.5283 44.8474 51.648C45.2875 50.9877 45.2875 50.3275 46.608 50.1074C46.8281 50.1074 47.2682 49.2271 47.2682 49.2271C46.8281 43.7252 48.1486 38.8835 52.7702 35.3622C56.2914 32.7213 60.693 32.0611 64.8744 32.5012C75.2181 33.6016 79.3995 46.146 70.5964 52.9684C67.9555 55.1692 63.9941 54.9491 61.3532 52.9684C60.0327 52.0881 59.5926 50.5476 59.1524 49.007C58.4922 46.5862 59.5926 44.3854 61.3532 42.8449C63.554 40.8642 62.0134 42.6248 62.0134 42.6248C59.8126 45.7059 59.3725 51.2078 63.774 52.5283C67.0752 53.6287 70.3764 50.1074 71.4767 47.2464C74.1177 40.6441 69.9362 35.3622 63.3339 34.702C58.052 34.2619 53.6505 37.7831 51.4497 42.1846C50.1292 44.3854 50.1292 47.0263 50.1292 49.6673C50.1292 47.9066 56.0713 49.2271 52.1099 50.5476C51.8899 50.5476 51.4497 51.4279 51.4497 51.4279C51.8899 54.729 51.8899 58.0302 55.8513 58.2503C60.0327 58.4704 63.9941 59.1306 67.9555 60.0109C69.496 60.231 74.1177 61.3314 74.3377 58.4704C74.3377 57.37 74.7779 54.2889 75.8783 56.4897C76.5385 58.0302 76.3184 60.0109 76.0984 61.7715C75.8783 63.7522 76.0984 65.953 76.0984 67.9337C76.0984 72.3352 76.0984 76.9568 76.0984 81.3584C76.3184 81.1383 76.5385 80.6982 76.5385 80.4781C75.218 80.6982 71.2567 81.5785 71.6968 79.8179C72.5771 77.1769 73.2374 73.8758 72.7972 71.2348C72.5771 70.1344 71.0366 68.3738 70.3764 67.2734C69.7161 65.953 69.276 64.8526 67.7354 64.8526C63.774 64.6325 59.8126 66.3931 55.8513 65.7329C55.6312 65.7329 55.4111 66.6132 55.191 66.6132C55.191 71.4549 54.9709 76.2966 54.9709 81.1383C55.191 80.9182 55.4111 80.4781 55.6312 80.258C54.7509 80.258 50.5694 80.6982 50.5694 79.8179C50.3493 78.2773 51.0096 76.5167 51.4497 74.9762C52.33 71.8951 52.33 69.2541 51.6698 66.1731C51.2296 64.4124 49.2489 63.092 48.8088 61.1113C48.3686 59.3507 48.8088 58.0302 47.7084 56.4897C47.2682 55.8294 46.3879 56.4897 45.7277 56.4897C45.2875 56.7097 44.6273 56.0495 44.4072 55.8294C42.6466 54.729 39.1254 57.8101 40.6659 53.1885C40.6659 53.1885 40.2258 53.8487 40.2258 54.0688C39.7856 55.1692 39.5655 55.8294 40.2258 56.7097C40.6659 57.1499 42.2065 56.4897 42.6466 56.2696C43.3069 56.0495 43.9671 56.7097 44.4072 56.9298C45.7277 57.8101 46.608 56.2696 47.7084 57.8101C48.5887 58.9105 48.3686 60.6711 48.3686 61.9916C48.5887 64.1924 50.3493 65.0727 51.2296 67.0534C51.8899 68.3738 51.2296 70.3545 51.6698 71.675C52.33 74.7561 49.9092 77.8372 50.3493 81.1383C52.1099 81.1383 53.6505 81.3584 55.4111 81.1383C55.6312 81.1383 56.0713 80.4781 56.0713 80.258C56.0713 75.4163 56.2226 71.0148 56.2226 66.1731C56.0026 66.3931 55.8513 66.3931 55.8513 66.6132C58.4922 66.8333 61.1331 66.6132 63.774 66.1731C65.5347 65.953 68.3957 64.8526 69.7161 66.6132C71.0366 68.3738 73.0173 71.4549 73.0173 73.4356C73.0173 75.8565 72.5771 78.9375 71.4767 81.3584C71.4767 81.3584 71.2567 81.5785 71.4767 81.5785C73.2374 81.5785 74.998 81.5785 76.7586 81.3584C76.9787 81.3584 77.4188 80.6982 77.4188 80.4781C77.4188 76.0765 77.4188 71.4549 77.4188 67.0534C77.4188 65.0727 77.4188 63.092 77.4188 60.8912C77.4188 60.6711 77.6389 53.6287 76.3184 54.509C75.6582 54.9491 75.4381 55.6094 75.218 56.2696C74.7779 57.59 75.4381 58.9105 73.8976 59.3507C73.0173 59.5707 71.6968 59.3507 70.8165 59.3507C67.0752 58.9105 63.554 58.0302 59.8126 57.59C57.8319 57.37 55.6312 57.8101 54.0906 56.2696C53.2103 55.1692 52.9903 52.0881 52.7702 50.5476C52.5501 50.7677 52.33 51.2078 52.1099 51.4279C52.9902 51.2078 55.6312 49.007 54.0906 47.9067C53.4304 47.4665 52.1099 48.1267 51.6698 48.5669C51.2296 48.787 51.4497 45.0456 51.4497 44.3854C52.1099 37.563 59.5926 34.702 65.3146 35.5823C68.3957 36.0225 70.8165 38.0032 71.9169 40.6441C73.6775 45.0456 71.0366 51.2078 65.7547 51.2078C61.3532 51.2078 60.4729 44.8256 62.8937 42.1846C63.3339 41.7445 63.3339 41.3043 63.3339 40.8642C57.8319 44.3854 56.9516 53.4086 64.6543 54.9491C71.6968 56.2696 76.5385 47.4665 76.5385 41.7445C76.7586 30.9607 62.8937 29.4202 55.6312 32.9414C49.2489 36.0225 46.608 43.065 47.2682 49.8873C47.4883 49.6673 47.7084 49.2271 47.7084 49.007C46.1679 49.2271 45.7277 50.3275 45.2875 51.4279C45.5076 51.2078 45.7277 50.7677 45.7277 50.5476C43.747 50.7677 40.6659 51.2078 40.6659 53.6287C40.2258 54.0688 40.6659 53.6287 40.6659 53.1885Z" fill="#714615"/>
<defs>
<linearGradient id="paint0_linear_750_2104" x1="-51.1831" y1="81.4805" x2="183.121" y2="33.7097" gradientUnits="userSpaceOnUse">
<stop offset="0.326722" stop-color="#B6976F"/>
<stop offset="0.480461" stop-color="#FEFDFD"/>
<stop offset="0.650867" stop-color="#B6976F"/>
</linearGradient>
</defs>
</svg>
